<svg width="256" height="256" viewBox="0 0 256 256" fill="none" xmlns="http://www.w3.org/2000/svg">
<g clip-path="url(#clip0_1_38)">
<path d="M200 0H56C25.0721 0 0 25.0721 0 56V200C0 230.928 25.0721 256 56 256H200C230.928 256 256 230.928 256 200V56C256 25.0721 230.928 0 200 0Z" fill="#1F3A72"></path>
<path d="M81.477 178C71.4464 178 63.526 175.393 57.7156 170.179C51.9052 164.965 49 157.958 49 149.157C49 139.031 52.7156 131.21 60.1468 125.694C67.5779 120.179 77.4097 117.421 89.6421 117.421C94.2904 117.421 98.5106 117.753 102.303 118.416C106.095 119.079 109.612 119.983 112.853 121.128V115.975C112.853 111.574 111.416 108.259 108.541 106.029C105.667 103.799 101.446 102.684 95.8806 102.684C90.0091 102.684 84.6727 103.678 79.8715 105.667C75.0703 107.656 70.6208 110.248 66.5229 113.443L51.6605 94.3653C59.6728 88.6389 67.6391 84.4798 75.5596 81.8879C83.4801 79.296 92.1192 78 101.477 78C116.89 78 128.709 81.2098 136.936 87.6293C145.162 94.0488 149.275 103.588 149.275 116.246V174.655H112.945V156.662L119.734 163.805H112.303C109.917 167.662 106.049 170.993 100.697 173.796C95.3455 176.599 88.9388 178 81.477 178ZM96.0641 155.939C101.446 155.939 105.59 154.16 108.495 150.604C111.4 147.048 112.853 141.924 112.853 135.233V135.052C111.018 134.209 108.862 133.53 106.385 133.018C103.908 132.506 101.202 132.25 98.266 132.25C93.9235 132.25 90.2232 133.289 87.1651 135.369C84.107 137.448 82.5779 140.568 82.5779 144.727C82.5779 148.585 83.7706 151.418 86.1559 153.226C88.5412 155.034 91.844 155.939 96.0641 155.939Z" fill="white"></path>
<path d="M187.349 176.463C181.294 176.463 176.156 174.429 171.936 170.36C167.716 166.291 165.605 161.303 165.605 155.396C165.605 149.429 167.716 144.41 171.936 140.342C176.156 136.273 181.294 134.239 187.349 134.239C193.404 134.239 198.526 136.273 202.715 140.342C206.905 144.41 209 149.429 209 155.396C209 161.303 206.905 166.291 202.715 170.36C198.526 174.429 193.404 176.463 187.349 176.463Z" fill="white"></path>
</g>
<defs>
<clipPath id="clip0_1_38">
<rect width="256" height="256" fill="white"></rect>
</clipPath>
</defs>
</svg>